<?xml version="1.0" standalone="no"?><!DOCTYPE svg PUBLIC "-//W3C//DTD SVG 1.1//EN" "http://www.w3.org/Graphics/SVG/1.1/DTD/svg11.dtd"><svg t="1609680531909" class="icon" viewBox="0 0 1024 1024" version="1.1" xmlns="http://www.w3.org/2000/svg" p-id="19952" xmlns:xlink="http://www.w3.org/1999/xlink" width="128" height="128"><defs><style type="text/css"></style></defs><path d="M255.887 448.004c-3.757 0-7.518 0.13-11.243 0.39-40.43 2.818-77.983 20.778-105.741 50.571C111.237 528.66 96 567.381 96 608c0 42.737 16.643 82.917 46.863 113.137S213.262 768 256 768h512c42.738 0 82.917-16.643 113.138-46.863C911.358 690.917 928 650.737 928 608c0-40.619-15.236-79.34-42.902-109.034-27.76-29.792-65.311-47.75-105.738-50.566a160.535 160.535 0 0 0-17.99-0.243l-25.898 1.111-6.463-25.102a225.623 225.623 0 0 0-5.587-18.41c-15.45-43.996-43.847-81.584-82.123-108.7C603.385 270.197 558.674 256 511.999 256c-46.672 0-91.383 14.196-129.297 41.055-38.277 27.116-66.675 64.702-82.125 108.698a223.668 223.668 0 0 0-5.572 18.375l-6.442 25.106-25.897-1.088a160.943 160.943 0 0 0-6.78-0.142M768 832H256c-59.832 0-116.084-23.3-158.392-65.609C55.3 724.084 32 667.833 32 608.001c0-56.866 21.336-111.082 60.077-152.664C130.929 413.64 183.53 388.5 240.192 384.55c19.868-56.58 56.355-104.893 105.515-139.718C394.496 210.27 452 192.001 512 192.001c60.002 0 117.506 18.268 166.295 52.832 49.159 34.825 85.645 83.14 105.513 139.721 56.662 3.948 109.263 29.086 148.114 70.784C970.664 496.918 992 551.134 992 608c0 59.833-23.3 116.084-65.608 158.391-42.308 42.31-98.56 65.61-158.392 65.61" fill="#FF9F09" p-id="19953"></path><path d="M256 832c-59.833 0-116.084-23.3-158.392-65.608C55.3 724.084 32 667.833 32 608c0-59.832 23.3-116.084 65.608-158.392C139.916 407.3 196.167 384 256 384c25.528 0 50.583 4.268 74.468 12.686a223.432 223.432 0 0 1 20.424 8.356 224.514 224.514 0 0 1 17.872 9.375 225.206 225.206 0 0 1 22.427 14.966c14.085 10.675 16.849 30.747 6.174 44.831-10.676 14.085-30.747 16.849-44.831 6.175a161.014 161.014 0 0 0-16.028-10.696 160.331 160.331 0 0 0-12.754-6.691 159.607 159.607 0 0 0-14.554-5.955C292.162 451.044 274.264 448 256 448c-88.224 0-160 71.775-160 160s71.776 160 160 160c17.673 0 32 14.327 32 32 0 17.673-14.327 32-32 32" fill="#FF9F09" p-id="19954"></path></svg>