<?xml version="1.0" standalone="no"?><!DOCTYPE svg PUBLIC "-//W3C//DTD SVG 1.1//EN" "http://www.w3.org/Graphics/SVG/1.1/DTD/svg11.dtd"><svg t="1609681330243" class="icon" viewBox="0 0 1024 1024" version="1.1" xmlns="http://www.w3.org/2000/svg" p-id="25673" xmlns:xlink="http://www.w3.org/1999/xlink" width="128" height="128"><defs><style type="text/css"></style></defs><path d="M280.917333 376.832l36.408889 464.042667c3.185778 40.277333 39.651556 73.955556 80.327111 73.955555h247.921778c40.789333 0 77.198222-33.564444 80.327111-73.955555l36.408889-464.042667c3.015111-37.660444-24.462222-67.242667-62.577778-67.242667H343.495111c-38.286222 0-65.592889 29.468444-62.577778 67.242667z m-85.105777 6.712889c-6.826667-87.495111 59.733333-159.288889 147.683555-159.288889H699.733333c87.836444 0 154.567111 71.907556 147.683556 159.288889l-36.408889 463.985778c-6.656 84.821333-80.213333 152.576-165.432889 152.576H397.653333c-85.162667 0-158.72-67.811556-165.376-152.576l-36.408889-463.985778z" fill="#d81e06" p-id="25674"></path><path d="M394.808889 449.251556a42.666667 42.666667 0 0 1 85.333333 0v346.680888a42.666667 42.666667 0 1 1-85.333333 0V449.251556zM551.708444 449.251556a42.666667 42.666667 0 0 1 85.333334 0v346.680888a42.666667 42.666667 0 1 1-85.333334 0V449.251556zM186.368 216.632889a42.666667 42.666667 0 0 1 0-85.333333h659.911111a42.666667 42.666667 0 1 1 0 85.333333h-659.911111zM390.371556 130.958222a42.666667 42.666667 0 1 1 0-85.333333h251.733333a42.666667 42.666667 0 1 1 0 85.333333H390.371556z" fill="#d81e06" p-id="25675"></path></svg>