<?xml version="1.0" standalone="no"?><!DOCTYPE svg PUBLIC "-//W3C//DTD SVG 1.1//EN" "http://www.w3.org/Graphics/SVG/1.1/DTD/svg11.dtd"><svg t="1609813213296" class="icon" viewBox="0 0 1024 1024" version="1.1" xmlns="http://www.w3.org/2000/svg" p-id="3332" xmlns:xlink="http://www.w3.org/1999/xlink" width="128" height="128"><defs><style type="text/css"></style></defs><path d="M867.871605 516.424691H156.128395c-43.614815 0-79.644444-36.02963-79.644444-79.644444s36.02963-79.644444 79.644444-79.644445h711.111111c43.614815 0 79.644444 36.02963 79.644445 79.644445s-35.397531 79.644444-79.012346 79.644444zM156.128395 405.175309c-17.066667 0-31.604938 13.906173-31.604938 31.604938 0 17.066667 13.906173 31.604938 31.604938 31.604938h711.111111c17.066667 0 31.604938-13.906173 31.604938-31.604938 0-17.066667-13.906173-31.604938-31.604938-31.604938H156.128395z" fill="#d81e06" p-id="3333"></path><path d="M611.239506 405.175309h-195.950617V104.296296C415.288889 50.567901 458.903704 6.320988 513.264198 6.320988s97.975309 44.246914 97.975308 97.975308v300.879013z m-147.911111-48.039507h99.871605v-252.839506c0-27.812346-22.123457-49.935802-49.935802-49.935802s-49.935802 22.123457-49.935803 49.935802v252.839506zM899.476543 1017.679012H139.693827c-13.906173 0-26.548148-6.320988-35.397531-16.434568-8.849383-10.745679-12.641975-24.651852-10.11358-37.925925l87.861728-494.933334h675.081482l87.861728 494.933334c2.528395 13.274074-1.264198 27.180247-10.11358 37.925925-8.849383 10.11358-22.123457 16.434568-35.397531 16.434568zM222.498765 516.424691l-80.908642 455.111111 755.990124-1.896296-80.908642-453.214815h-594.17284z" fill="#d81e06" p-id="3334"></path><path d="M286.340741 1006.933333c-1.264198 0-2.528395 0-3.792593-0.632098-13.274074-1.896296-22.123457-14.538272-19.595062-27.812346l49.935803-305.303704c1.896296-13.274074 14.538272-22.123457 27.812346-19.595062 13.274074 1.896296 22.123457 14.538272 19.595061 27.812346l-50.567901 305.303704c-1.896296 11.377778-12.009877 20.22716-23.387654 20.22716z" fill="#d81e06" p-id="3335"></path></svg>